PathFileType	4	(X/Y/Z)	/Users/rkoike/Documents/python/sports2d/webcam_20250611_152632/webcam_20250611_152632_px_person00.trc
DataRate	CameraRate	NumFrames	NumMarkers	Units	OrigDataRate	OrigDataStartFrame	OrigNumFrames
30	30	6	22	m	30	0	2485
Frame#	Time	Hip			RHip			RKnee			RAnkle			RBigToe			RSmallToe			RHeel			LHip			LKnee			LAnkle			LBigToe			LSmallToe			LHeel			Neck			Head			Nose			RShoulder			RElbow			RWrist			LShoulder			LElbow			LWrist			
		X1	Y1	Z1	X2	Y2	Z2	X3	Y3	Z3	X4	Y4	Z4	X5	Y5	Z5	X6	Y6	Z6	X7	Y7	Z7	X8	Y8	Z8	X9	Y9	Z9	X10	Y10	Z10	X11	Y11	Z11	X12	Y12	Z12	X13	Y13	Z13	X14	Y14	Z14	X15	Y15	Z15	X16	Y16	Z16	X17	Y17	Z17	X18	Y18	Z18	X19	Y19	Z19	X20	Y20	Z20	X21	Y21	Z21	X22	Y22	Z22
0	0.0	225.98419064451383	505.59529273256396	0.0	136.52314363000409	519.6291638905968	0.0	94.41562252187512	717.8481657183404	0.0	332.79875195400626	707.347350236702	0.0	1106.9944661458335	-425.91668701171875	0.0	924.9912925787382	365.6213146850923	0.0	860.2775518033209	8.49734160664973	0.0	304.9199043030424	528.3998583677527	0.0	306.6743158710202	737.1423353217673	0.0	443.5203399658204	709.5617828369141	0.0			0.0			0.0			0.0	255.80342923807777	70.56462400559667	0.0	301.41309264278925	-18.89704434176514	0.0	306.674361396727	2.1518240510846933	0.0	94.42327884706343	70.56490504277201	0.0	17.238766678783726	284.5728882248949	0.0	85.65344885299713	400.34545506078774	0.0	382.1017296191276	140.73067766566265	0.0	399.64356396466076	349.47528761997677	0.0	415.43401409068844	509.1023971456308	0.0
1	0.033346752549651096	188.44195217393747	513.6792004984464	0.0	108.77708844408343	536.8050453551326	0.0	145.85828867149985	703.0887387180181	0.0	332.79875201722945	707.3473525010395	0.0	1106.9944661458335	-425.91668701171875	0.0	924.9912928378487	365.6213155323924	0.0	860.2775520067322	8.497342608056458	0.0	269.6168602694198	532.4421972136373	0.0	291.656212407639	712.6275205386161	0.0	443.5203399658204	709.5617828369141	0.0			0.0			0.0			0.0	429.7189009544818	235.1992000450378	0.0	426.27811948134564	61.58713622864475	0.0	451.6246947010003	154.10307158120477	0.0	250.02338360035182	259.9363954511162	0.0	132.3346450710443	252.81083052822723	0.0	168.18848586621192	331.9735208501394	0.0	588.7905948381901	312.41407250770123	0.0	632.8212871025399	506.27313765896	0.0	385.08403355218707	501.20276187508057	0.0
2	0.06669350509930219	148.58208350975445	511.58772715399897	0.0	79.17173613210893	540.9827721902122	0.0	176.66102194428424	692.4690451550276	0.0	332.79875155449406	707.3473580438639	0.0	1106.9944661458335	-425.91668701171875	0.0	924.99128968164	365.62132265347697	0.0	860.2775490292823	8.497335118313888	0.0	232.07676152532073	528.442349863524	0.0	280.4699347878503	693.9314573784711	0.0	443.52033996582026	709.5617828369141	0.0			0.0			0.0			0.0	515.516243678342	325.9489564156868	0.0	540.4645861368689	135.02999940108208	0.0	522.8203102147415	240.21595265243545	0.0	331.8923578760688	365.48734444979334	0.0	205.5764818624068	214.77895945942655	0.0	240.58652011826555	256.8569555062777	0.0	690.5417057546223	403.69802174763225	0.0	751.5053225603342	590.7118700846452	0.0	338.12987815722687	489.71676583449465	0.0
3	0.10004025764895329	121.28850462576042	496.41395967856073	0.0	58.69786854386747	525.8159761845807	0.0	162.26332597954237	690.7587593541631	0.0	332.7987503583868	707.3473569402133	0.0	1106.9944661458335	-425.91668701171875	0.0	924.9912824022649	365.6213317647765	0.0	860.2775423716931	8.497315870258639	0.0	200.25564419716494	511.07617103961604	0.0	269.43704281561475	688.4389364528189	0.0	443.52033996581986	709.5617828369141	0.0			0.0			0.0			0.0	437.7644687077453	277.51781555223624	0.0	621.265409013346	186.4910810031666	0.0	456.7111319919942	200.96766401606274	0.0	277.48991228640205	312.56502406505325	0.0	196.30989460021098	185.89901251945332	0.0	291.91797212685185	195.45318165100568	0.0	598.9229645953394	344.54399191809034	0.0	658.1586029262305	536.868529662679	0.0	276.30344311634485	477.78354399840924	0.0
4	0.13338701019860438	152.01281386294218	493.29746288668895	0.0	83.60960190749557	516.5132808577978	0.0	112.10086190264927	696.8539752886761	0.0	332.798750464308	707.3473265511635	0.0	1106.9944661458335	-425.91668701171875	0.0	924.991284783485	365.6213125926178	0.0	860.2775450134033	8.49731779584055	0.0	206.83096986406733	495.88636063960547	0.0	247.4947012647162	695.3882316883983	0.0	443.52033996582	709.5617828369141	0.0			0.0			0.0			0.0	287.4252483779103	162.14659762234842	0.0	654.59265105773	206.79726070084786	0.0	329.1441027783701	98.87450114394291	0.0	162.19169842967685	179.56811683814342	0.0	136.0303450168847	218.0668431255566	0.0	332.50656245904986	210.98925277178876	0.0	424.21783827936207	214.17421166263046	0.0	470.61272084446483	414.14390323265496	0.0	264.03137001953627	482.75341853720755	0.0
5	0.16673376274825547	286.31582946163456	541.2582343424242	0.0	193.96897788241412	556.2283638638348	0.0	78.97641779299525	703.6217938862403	0.0	332.79875677252505	707.3472748396064	0.0	1106.9944661458335	-425.91668701171875	0.0	924.9913264517506	365.6212298825181	0.0	860.2775839978821	8.497419726427287	0.0	304.9761367589461	519.7555139213727	0.0	215.5555660355489	703.9874763372426	0.0	443.52033996582225	709.561782836914	0.0			0.0			0.0			0.0	285.4415956447156	162.6813424359686	0.0	654.8972440540222	205.7709998066133	0.0	326.2523530802418	96.82387293792227	0.0	166.29440679353317	167.12890418694732	0.0	118.66087403845103	356.5050346365287	0.0	393.7718385040778	356.1957040859959	0.0	428.06967912197206	208.6741404088868	0.0	473.15423611905317	406.444472401254	0.0	416.6089547583096	526.7855967791779	0.0
